<svg width="18" height="25" viewBox="0 0 18 25" fill="none" xmlns="http://www.w3.org/2000/svg">
<path d="M8.99995 3.79121C6.07344 3.79121 3.69245 6.23567 3.69245 9.2403C3.69245 12.2449 6.07344 14.6894 8.99995 14.6894C11.9265 14.6894 14.3075 12.2449 14.3075 9.2403C14.3075 6.23567 11.9265 3.79121 8.99995 3.79121ZM8.99995 13.2236C6.8606 13.2236 5.12002 11.4367 5.12002 9.2402C5.12002 7.04374 6.8606 5.25689 8.99995 5.25689C11.1393 5.25689 12.8799 7.04384 12.8799 9.2403C12.8799 11.4368 11.1394 13.2236 8.99995 13.2236Z" fill="white"/>
<path d="M8.99995 0C4.03735 0 0 4.14512 0 9.24019C0 12.1786 2.40022 16.5564 3.83092 18.9043C4.77226 20.449 5.78383 21.9192 6.6792 23.0438C8.11638 24.8489 8.63078 25 9.00005 25C9.37483 25 9.86049 24.8488 11.2932 23.0427C12.1906 21.9113 13.2026 20.442 14.143 18.9054C15.5835 16.5518 18 12.1662 18 9.2401C18 4.14512 13.9627 0 8.99995 0ZM13.1533 17.7643C11.3074 20.8405 9.61266 22.9192 8.99148 23.4499C8.36706 22.9355 6.69986 20.9063 4.82813 17.7739C2.66708 14.1571 1.42766 11.0467 1.42766 9.24019C1.42757 4.95329 4.82451 1.46567 8.99995 1.46567C13.1754 1.46567 16.5723 4.95329 16.5723 9.24019C16.5724 11.0363 15.3262 14.1432 13.1533 17.7643Z" fill="white"/>
</svg>
