<svg width="26" height="22" viewBox="0 0 26 22" fill="none" xmlns="http://www.w3.org/2000/svg">
<path d="M13 22C12.6299 22 12.273 21.8725 11.9949 21.6408C10.9445 20.7673 9.9319 19.9464 9.03847 19.2224L9.03391 19.2186C6.41451 17.0956 4.15256 15.2622 2.57874 13.4562C0.819443 11.4371 0 9.52279 0 7.4315C0 5.39963 0.732559 3.52511 2.06259 2.15299C3.40849 0.764638 5.25526 0 7.26331 0C8.76413 0 10.1386 0.451274 11.3484 1.34118C11.959 1.79038 12.5124 2.34014 13 2.98139C13.4878 2.34014 14.041 1.79038 14.6518 1.34118C15.8616 0.451274 17.2361 0 18.7369 0C20.7447 0 22.5917 0.764638 23.9376 2.15299C25.2676 3.52511 26 5.39963 26 7.4315C26 9.52279 25.1808 11.4371 23.4215 13.456C21.8476 15.2622 19.5859 17.0954 16.9669 19.2182C16.0719 19.9434 15.0576 20.7656 14.0049 21.6412C13.727 21.8725 13.3699 22 13 22ZM7.26331 1.44853C5.68571 1.44853 4.23647 2.04734 3.18216 3.13477C2.11218 4.23862 1.52284 5.7645 1.52284 7.4315C1.52284 9.19038 2.21017 10.7634 3.75127 12.5319C5.24078 14.2414 7.45631 16.037 10.0216 18.1162L10.0263 18.12C10.9231 18.8469 11.9397 19.671 12.9978 20.5509C14.0622 19.6693 15.0804 18.8439 15.979 18.1159C18.5441 16.0367 20.7594 14.2414 22.2489 12.5319C23.7898 10.7634 24.4772 9.19038 24.4772 7.4315C24.4772 5.7645 23.8878 4.23862 22.8178 3.13477C21.7637 2.04734 20.3143 1.44853 18.7369 1.44853C17.5812 1.44853 16.5202 1.79793 15.5833 2.48691C14.7484 3.10119 14.1668 3.87771 13.8258 4.42105C13.6504 4.70046 13.3418 4.86724 13 4.86724C12.6582 4.86724 12.3496 4.70046 12.1742 4.42105C11.8334 3.87771 11.2518 3.10119 10.4167 2.48691C9.47983 1.79793 8.41878 1.44853 7.26331 1.44853Z" fill="white"/>
</svg>
