<svg width="27" height="27" viewBox="0 0 27 27" fill="none" xmlns="http://www.w3.org/2000/svg">
<path d="M5.45468 26.9988C5.35464 26.9988 5.2546 26.9663 5.1705 26.9019C5.02165 26.7883 4.94722 26.5961 4.97864 26.4059L6.47248 17.2671L0.145765 10.7958C0.0143112 10.6608 -0.033051 10.4595 0.0234936 10.2764C0.0805215 10.0928 0.23179 9.95887 0.41399 9.93098L9.15666 8.59755L13.0669 0.283018C13.1481 0.109555 13.3163 0 13.5 0C13.6841 0 13.8523 0.109555 13.933 0.283018L17.8428 8.59755L26.5859 9.93098C26.7681 9.95887 26.9189 10.0923 26.9764 10.2764C27.033 10.4595 26.9861 10.6613 26.8542 10.7958L20.5274 17.2681L22.0208 26.4064C22.0517 26.5966 21.9773 26.7888 21.8289 26.9024C21.6801 27.017 21.4824 27.0317 21.3195 26.9409L13.5 22.6267L5.6794 26.9409C5.60884 26.9795 5.53152 26.9988 5.45468 26.9988ZM1.52168 10.7866L7.32886 16.7275C7.44244 16.8436 7.49463 17.012 7.46757 17.1763L6.09648 25.5644L13.2752 21.6042C13.4159 21.5261 13.5836 21.5261 13.7252 21.6042L20.903 25.5644L19.5324 17.1763C19.5053 17.012 19.5575 16.8441 19.6711 16.7275L25.4782 10.7866L17.4532 9.56275C17.2957 9.53891 17.1599 9.43494 17.0893 9.28531L13.5 1.65398L9.91059 9.28582C9.84002 9.43544 9.70422 9.53942 9.54667 9.56326L1.52168 10.7866Z" fill="white"/>
</svg>
