<svg width="24" height="32" viewBox="0 0 24 32" fill="none" xmlns="http://www.w3.org/2000/svg">
<path d="M1.23108 6.99042L1.23113 6.99039L11.7903 0.982362L1.23108 6.99042ZM1.23108 6.99042C1.02554 7.10753 0.9 7.32996 0.9 7.56973L0.9 15.4178L0.9 15.4179M1.23108 6.99042L0.9 15.4179M0.9 15.4179C0.906373 21.9068 4.60923 27.7797 10.3395 30.3812L10.3396 30.3813M0.9 15.4179L10.3396 30.3813M10.3396 30.3813L11.8052 31.0444M10.3396 30.3813L11.8052 31.0444M13.4649 29.0887L13.465 29.0889C18.8263 26.7527 22.3175 21.3038 22.3187 15.2621V7.96512L12.1039 2.31378L2.181 7.96024L2.181 15.4177L2.181 15.4178M13.4649 29.0887L2.081 15.4178H2.181M13.4649 29.0887L13.4588 29.0919L13.4578 29.0924L12.0633 29.7175L10.8548 29.1701L13.4649 29.0887ZM2.181 15.4178C2.18703 21.3854 5.59252 26.7812 10.8547 29.17L2.181 15.4178ZM7.28574 14.9166C7.55577 14.6773 7.96204 14.7111 8.19166 14.9903L10.6402 17.9672L16.8044 12.7606C17.08 12.5277 17.4855 12.5722 17.7082 12.8564M7.28574 14.9166L17.6295 12.9181M7.28574 14.9166C7.01785 15.1538 6.98693 15.5696 7.21475 15.8463M7.28574 14.9166L10.9646 19.4026M17.7082 12.8564L17.6295 12.9181M17.7082 12.8564C17.7082 12.8564 17.7082 12.8564 17.7082 12.8564L17.6295 12.9181M17.7082 12.8564C17.9295 13.1388 17.8892 13.5536 17.6158 13.7842M17.6295 12.9181C17.8181 13.1587 17.7831 13.5123 17.5513 13.7078M17.6158 13.7842L17.6159 13.7842L17.5513 13.7078M17.6158 13.7842L10.9646 19.4026M17.6158 13.7842L17.5513 13.7078M17.5513 13.7078L10.9646 19.4026M10.9646 19.4026L10.9 19.3262L10.9646 19.4026L10.9646 19.4026ZM10.9646 19.4026C10.694 19.6314 10.2963 19.5929 10.0707 19.3186L10.1479 19.2551L10.0707 19.3186L7.21479 15.8463M7.21479 15.8463L7.29199 15.7828L7.21475 15.8463M7.21479 15.8463C7.21478 15.8463 7.21477 15.8463 7.21475 15.8463M7.21479 15.8463L7.21475 15.8463M12.4024 0.978637L23.2621 6.98666C23.2621 6.98667 23.2621 6.98667 23.2621 6.98668C23.4713 7.10238 23.6 7.3274 23.6 7.56973V15.2621C23.5994 21.83 19.805 27.7597 13.9686 30.3049C13.9685 30.3049 13.9683 30.305 13.9682 30.3051L12.3177 31.0451L12.4024 0.978637ZM12.4024 0.978637C12.2108 0.872446 11.9806 0.873932 11.7904 0.982322L12.4024 0.978637ZM11.8052 31.0444C11.9683 31.1182 12.1542 31.1186 12.3176 31.0452L11.8052 31.0444ZM10.7037 18.0444L10.6273 18.1089L10.5638 18.0317L10.7037 18.0444Z" fill="white" stroke="white" stroke-width="0.2"/>
</svg>
