<svg width="30" height="22" viewBox="0 0 30 22" fill="none" xmlns="http://www.w3.org/2000/svg">
<path d="M24.5652 0H5.43483L0 7.54046L15 22L30 7.54109L24.5652 0ZM20.714 8.0873L15.0024 19.7748L9.33864 8.0873H20.714ZM9.86705 6.84307L15 1.50165L20.133 6.84307H9.86705ZM16.4431 1.24413H23.3886L21.4283 6.43187L16.4431 1.24413ZM8.64753 6.35284L7.01132 1.24413H13.5569L8.64753 6.35284ZM8.0001 8.0873L12.9727 18.3495L2.32672 8.0873H8.0001ZM22.0555 8.0873H27.6733L17.0518 18.3259L22.0555 8.0873ZM22.5577 6.84307L24.4306 1.88678L28.0026 6.84307H22.5577ZM5.83769 1.51479L7.54444 6.8437H1.99669L5.83769 1.51479Z" fill="white"/>
</svg>
