<svg width="30" height="25" viewBox="0 0 30 25" fill="none" xmlns="http://www.w3.org/2000/svg">
<path d="M29.6955 6.26162C29.4226 6.05086 29.0466 6.05304 28.7776 6.26615L20.8812 12.4635L15.6987 0.425461C15.4536 -0.14182 14.5491 -0.14182 14.3032 0.425461L9.06004 12.6021L1.23243 6.27235C0.962082 6.05505 0.584023 6.04902 0.308626 6.2576C0.0322523 6.46769 -0.0723657 6.84264 0.0516441 7.16951L5.48983 21.6161C5.60243 21.9182 5.88581 22.116 6.19983 22.116H23.8006C24.1171 22.116 24.398 21.919 24.5111 21.6161L29.9486 7.16951C30.0716 6.84264 29.9685 6.47171 29.6955 6.26162ZM23.2786 20.55H6.72227L2.47578 9.27059L8.88926 14.4555C9.0734 14.6055 9.31393 14.6596 9.54467 14.5984C9.77346 14.5411 9.96249 14.3781 10.0581 14.1556L15.0011 2.67666L19.8781 14.0065C19.9744 14.225 20.1598 14.388 20.3862 14.4473C20.6123 14.5085 20.8524 14.4575 21.039 14.3106L27.5541 9.19721L23.2786 20.55ZM24.4832 24.2164C24.4832 24.649 24.1418 25 23.7211 25H6.27805C5.85729 25 5.51606 24.649 5.51606 24.2164C5.51606 23.7838 5.85746 23.4329 6.27805 23.4329H23.7211C24.1428 23.433 24.4832 23.7838 24.4832 24.2164Z" fill="white"/>
</svg>
